<svg xmlns="http://www.w3.org/2000/svg" version="1.1" xmlns:xlink="http://www.w3.org/1999/xlink" xmlns:svgjs="http://svgjs.dev/svgjs" width="2000" height="1500" viewBox="0 0 2000 1500"><rect width="2000" height="1500" fill="#471aa0"></rect><g transform="matrix(0.2672367717797969,0,0,0.2672367717797969,732.2875829556232,250.40485829959516)"><svg viewBox="0 0 132 247" data-background-color="#471aa0" preserveAspectRatio="xMidYMid meet" height="3742" width="2000" xmlns="http://www.w3.org/2000/svg" xmlns:xlink="http://www.w3.org/1999/xlink"><g id="tight-bounds" transform="matrix(1,0,0,1,0.11747106228384041,-0.09999999999999432)"><svg viewBox="0 0 131.76505787543232 247.2" height="247.2" width="131.76505787543232"><g><svg viewBox="0 0 253.27868852459014 475.1676416555685" height="247.2" width="131.76505787543232"><g transform="matrix(1,0,0,1,0,227.9676416555685)"><svg viewBox="0 0 253.27868852459014 247.2" height="247.2" width="253.27868852459014"><g id="textblocktransform"><svg viewBox="0 0 253.27868852459014 247.2" height="247.2" width="253.27868852459014" id="textblock"><g><svg viewBox="0 0 253.27868852459014 247.2" height="247.2" width="253.27868852459014"><g transform="matrix(1,0,0,1,0,0)"><svg width="253.27868852459014" viewBox="1.75 -35 37.5 36.6" height="247.2" data-palette-color="#ffffff"><path d="M34.5-32L34.5-32 39.25-32 39.25-35 28.15-35 28.15-32 31.3-32Q28.7-25.65 26.05-19.43 23.4-13.2 20.75-6.95L20.75-6.95 20.3-5.4 19.85-6.95Q17.15-13.2 14.53-19.45 11.9-25.7 9.2-32L9.2-32 12.85-32 12.85-35 1.75-35 1.75-32 6.05-32Q9.6-23.5 13.18-15.18 16.75-6.85 20.3 1.6L20.3 1.6Q23.85-6.85 27.4-15.18 30.95-23.5 34.5-32Z" opacity="1" transform="matrix(1,0,0,1,0,0)" fill="#ffffff" class="wordmark-text-0" data-fill-palette-color="primary" id="text-0"></path></svg></g></svg></g></svg></g></svg></g><g transform="matrix(1,0,0,1,71.01351063451081,0)"><svg viewBox="0 0 111.25166725556852 111.25166725556852" height="111.25166725556852" width="111.25166725556852"><g><svg></svg></g><g id="icon-0"><svg viewBox="0 0 111.25166725556852 111.25166725556852" height="111.25166725556852" width="111.25166725556852"><g><path d="M0 55.626c0-30.721 24.905-55.626 55.626-55.626 30.721 0 55.626 24.905 55.626 55.626 0 30.721-24.905 55.626-55.626 55.626-30.721 0-55.626-24.905-55.626-55.626zM55.626 88.959c18.409 0 33.333-14.924 33.333-33.333 0-18.409-14.924-33.333-33.333-33.333-18.409 0-33.333 14.924-33.333 33.333 0 18.409 14.924 33.333 33.333 33.333z" data-fill-palette-color="accent" fill="#ffffff" stroke="transparent"></path><ellipse rx="55.06957529150642" ry="55.06957529150642" cx="55.62583362778426" cy="55.62583362778426" fill="#ffffff" stroke="transparent" stroke-width="0" fill-opacity="1" data-fill-palette-color="accent"></ellipse></g><g transform="matrix(1,0,0,1,54.93668557878037,54.975219853983845)"><svg viewBox="0 0 1.3782960980077803 1.301227547600833" height="1.301227547600833" width="1.3782960980077803"><g><svg xmlns="http://www.w3.org/2000/svg" xmlns:xlink="http://www.w3.org/1999/xlink" version="1.1" x="0" y="0" viewBox="26.68910665659213 28.010502463875625 47.01328363272732 44.38449753612437" enable-background="new 0 0 98.386 98.386" xml:space="preserve" height="1.301227547600833" width="1.3782960980077803" class="icon-z$-0" data-fill-palette-color="quaternary" id="z$-0"><g fill="#471aa0" data-fill-palette-color="quaternary"><g fill="#471aa0" data-fill-palette-color="quaternary"><path d="M50.697 72.395c-0.245 0-0.469-0.004-0.667-0.011-0.552-0.018-0.985-0.481-0.967-1.032 0.019-0.552 0.489-0.995 1.032-0.967 2.211 0.071 7.804-0.165 11.942-3.928 2.774-2.524 3.651-5.472 4.174-7.233 1.111-3.74 1.92-11.045-0.408-15.841-0.339-0.696-1.162-2.383-0.667-4.31 0.412-1.606 1.671-3.058 3.286-3.788 0.481-0.217 1.496-0.68 2.676-0.56-0.164-0.309-0.358-0.646-0.579-0.994-1.214-1.912-1.768-2.785-2.955-3.308-1.736-0.767-3.804-0.358-5.085 0.387-1.065 0.62-1.621 1.456-2.066 2.127-0.277 0.417-0.946 1.535-1.178 2.924-0.229 1.371 0.159 2.513 0.535 3.617 0.187 0.548 0.362 1.066 0.461 1.599 0.664 3.594 0.936 6.321 0.682 12.101-0.259 5.893-1.657 7.36-2.679 8.431l-0.24 0.256c-2.248 2.497-5.459 3.322-7.757 3.575-0.551 0.058-1.042-0.336-1.104-0.885-0.061-0.549 0.336-1.043 0.885-1.103 1.952-0.215 4.663-0.897 6.489-2.925 0.088-0.098 0.182-0.196 0.278-0.297 0.803-0.842 1.902-1.996 2.128-7.14 0.245-5.586-0.014-8.207-0.65-11.649-0.072-0.39-0.225-0.841-0.388-1.318-0.412-1.213-0.925-2.723-0.614-4.59 0.285-1.706 1.053-3.052 1.485-3.702 0.501-0.754 1.259-1.894 2.726-2.748 1.592-0.927 4.354-1.613 6.898-0.488 1.742 0.769 2.53 2.01 3.835 4.065 2.307 3.634 1.365 4.242 0.963 4.502-0.617 0.396-1.197 0.031-1.445-0.124-0.153-0.096-0.312-0.196-0.522-0.26-0.729-0.226-1.559 0.149-1.957 0.33-1.06 0.478-1.912 1.445-2.173 2.462-0.312 1.215 0.255 2.378 0.497 2.875 2.81 5.789 1.59 13.874 0.557 17.349-0.545 1.833-1.559 5.243-4.746 8.143C59.081 71.849 53.482 72.395 50.697 72.395z" fill="#471aa0" data-fill-palette-color="quaternary"></path></g><g fill="#471aa0" data-fill-palette-color="quaternary"><path d="M27.223 37.162c0.617 0.398 1.196 0.032 1.444-0.124 0.153-0.096 0.311-0.195 0.522-0.26 0.729-0.226 1.559 0.149 1.958 0.33 1.059 0.479 1.912 1.445 2.172 2.462 0.312 1.216-0.256 2.379-0.53 2.94-0.932 1.922-1.407 4.11-1.597 6.3h2.021c0.186-1.953 0.614-3.858 1.405-5.486 0.31-0.635 1.134-2.321 0.639-4.251-0.413-1.607-1.671-3.058-3.287-3.788-0.48-0.217-1.501-0.677-2.675-0.559 0.164-0.309 0.358-0.646 0.579-0.994 1.213-1.912 1.767-2.784 2.955-3.309 1.737-0.765 3.805-0.358 5.084 0.387 1.064 0.62 1.62 1.455 2.067 2.126 0.344 0.519 0.955 1.589 1.178 2.925 0.229 1.371-0.159 2.513-0.535 3.617-0.187 0.548-0.362 1.066-0.461 1.599-0.664 3.595-0.935 6.322-0.681 12.101 0.259 5.893 1.657 7.36 2.679 8.432l0.24 0.256c2.248 2.496 5.459 3.322 7.756 3.575 0.546 0.059 1.042-0.336 1.104-0.885 0.06-0.549-0.336-1.043-0.885-1.104-1.952-0.215-4.662-0.897-6.489-2.925-0.088-0.098-0.182-0.196-0.278-0.297-0.803-0.842-1.903-1.996-2.128-7.14-0.245-5.585 0.014-8.207 0.65-11.649 0.072-0.39 0.225-0.841 0.388-1.318 0.413-1.213 0.926-2.723 0.614-4.59-0.284-1.702-1.052-3.049-1.486-3.703-0.501-0.754-1.259-1.893-2.726-2.747-1.593-0.927-4.355-1.611-6.898-0.488-1.743 0.769-2.531 2.01-3.835 4.067C25.88 36.294 26.821 36.902 27.223 37.162z" fill="#471aa0" data-fill-palette-color="quaternary"></path><path d="M50.299 70.385c-2.22 0.067-7.804-0.164-11.942-3.928-2.774-2.524-3.65-5.471-4.174-7.233-0.549-1.846-1.022-4.563-1.079-7.424h-2.006c0.069 3.247 0.641 6.221 1.168 7.995 0.545 1.832 1.559 5.243 4.746 8.141 4.301 3.912 9.901 4.458 12.686 4.458 0.245 0 0.469-0.004 0.667-0.011 0.552-0.018 0.985-0.48 0.967-1.032C51.313 70.799 50.862 70.356 50.299 70.385z" fill="#471aa0" data-fill-palette-color="quaternary"></path></g></g></svg></g></svg></g></svg></g></svg></g><g></g></svg></g><defs></defs></svg><rect width="131.76505787543232" height="247.2" fill="none" stroke="none" visibility="hidden"></rect></g></svg></g></svg>